<svg xmlns="http://www.w3.org/2000/svg" viewBox="0 0 1600 900" role="img" aria-labelledby="t d">
  <title id="t">Moghul Court vein poster — Dum Biryani</title>
  <desc id="d">A saffron rice mound in a copper pot with herbs and whole spice.</desc>
  <defs>
    <radialGradient id="bg" cx="0.5" cy="0.4" r="0.9">
      <stop offset="0" stop-color="#FFF9EE"/>
      <stop offset="1" stop-color="#F3DCA0"/>
    </radialGradient>
    <radialGradient id="glow" cx="0.5" cy="0.5" r="0.55">
      <stop offset="0" stop-color="#E8A33C" stop-opacity="0.35"/>
      <stop offset="1" stop-color="#E8A33C" stop-opacity="0"/>
    </radialGradient>
  </defs>

  <rect width="1600" height="900" fill="url(#bg)"/>
  <rect width="1600" height="900" fill="url(#glow)"/>

  <ellipse cx="800" cy="680" rx="380" ry="58" fill="#33281F" opacity="0.1"/>

  <path d="M360 600 h880 a180 120 0 0 0 -180 -86 h-520 a180 120 0 0 0 -180 86z" fill="#C9823A"/>
  <path d="M340 600 h920 l-40 40 h-840 z" fill="#8E5A24"/>
  <ellipse cx="800" cy="600" rx="420" ry="60" fill="#B06F2C"/>

  <path d="M560 600 q240 -260 480 0 a270 40 0 0 1 -480 0z" fill="#F2D183"/>
  <g fill="#E8BD62" opacity="0.8">
    <circle cx="660" cy="540" r="16"/><circle cx="900" cy="520" r="14"/>
    <circle cx="720" cy="480" r="12"/><circle cx="860" cy="560" r="12"/>
  </g>
  <g fill="#C99A3E" opacity="0.6">
    <path d="M620 570 q12 -24 6 -40 q-16 8 0 40z"/>
    <path d="M980 570 q12 -24 6 -40 q-16 8 0 40z"/>
  </g>

  <g fill="#4C6B30">
    <path d="M680 460 q14 34 6 60 q-22 -12 -6 -60z"/>
    <path d="M900 470 q14 30 4 56 q-20 -12 0 -56z"/>
    <path d="M780 430 q10 24 4 40 q-16 -6 0 -40z"/>
  </g>

  <circle cx="1120" cy="430" r="42" fill="#7A4A22" stroke="#4C3322" stroke-width="8"/>
  <g stroke="#F3D183" stroke-width="8" stroke-linecap="round">
    <line x1="1120" y1="396" x2="1148" y2="404"/>
    <line x1="1092" y1="412" x2="1104" y2="438"/>
    <line x1="1140" y1="436" x2="1150" y2="410"/>
  </g>

  <g fill="#B53B16" opacity="0.5">
    <circle cx="200" cy="190" r="10"/><circle cx="280" cy="230" r="6"/>
    <circle cx="1400" cy="170" r="8"/><circle cx="1330" cy="220" r="5"/>
  </g>
</svg>